<?xml version="1.0" standalone="no"?>
<!DOCTYPE svg PUBLIC "-//W3C//DTD SVG 20010904//EN"
 "http://www.w3.org/TR/2001/REC-SVG-20010904/DTD/svg10.dtd">
<svg version="1.0" xmlns="http://www.w3.org/2000/svg"
 width="203.000000pt" height="203.000000pt" viewBox="0 0 203.000000 203.000000"
 preserveAspectRatio="xMidYMid meet">

<g transform="translate(0.000000,203.000000) scale(0.100000,-0.100000)"
fill="#000000" stroke="none">
<path d="M850 1919 c-303 -51 -589 -295 -690 -591 -115 -334 -34 -684 215
-933 210 -210 492 -301 785 -254 313 50 597 290 700 591 115 334 34 684 -215
933 -138 138 -305 226 -485 254 -77 13 -233 12 -310 0z m350 -45 c329 -74 577
-321 655 -654 34 -146 12 -225 -90 -325 -153 -150 -432 -238 -755 -238 -323 0
-602 88 -755 238 -102 100 -124 179 -90 325 111 471 566 759 1035 654z m-986
-993 c95 -102 278 -188 506 -237 122 -27 458 -27 580 0 270 58 464 162 553
296 l17 24 0 -29 c-1 -74 -50 -232 -102 -325 -156 -279 -436 -442 -758 -442
-322 0 -602 163 -758 442 -52 93 -101 251 -102 325 l0 29 17 -24 c9 -14 30
-40 47 -59z"/>
<path d="M1350 1475 c0 -44 0 -44 -25 -33 -37 17 -72 -3 -80 -44 -13 -67 33
-116 83 -89 15 8 22 8 25 -2 12 -35 20 43 18 176 -1 53 -21 46 -21 -8z m-19
-55 c30 -17 26 -77 -6 -92 -33 -15 -55 4 -55 46 0 49 23 66 61 46z"/>
<path d="M1420 1495 c0 -8 7 -15 15 -15 8 0 15 7 15 15 0 8 -7 15 -15 15 -8 0
-15 -7 -15 -15z"/>
<path d="M990 1375 c0 -43 4 -75 10 -75 6 0 10 22 10 49 0 52 21 87 46 77 8
-3 14 -1 14 5 0 16 -29 22 -45 9 -10 -9 -15 -9 -15 -1 0 6 -4 11 -10 11 -6 0
-10 -32 -10 -75z"/>
<path d="M1097 1443 c-15 -15 -5 -22 23 -17 18 4 36 1 45 -6 23 -19 18 -30
-15 -30 -29 0 -70 -29 -70 -49 0 -15 30 -41 46 -41 9 0 24 5 35 10 13 7 19 7
19 0 0 -5 5 -10 10 -10 17 0 12 116 -6 134 -15 16 -75 22 -87 9z m83 -86 c0
-18 -21 -37 -41 -37 -22 0 -33 16 -25 35 7 19 66 20 66 2z"/>
<path d="M1420 1375 c0 -60 3 -75 15 -75 12 0 15 15 15 75 0 60 -3 75 -15 75
-12 0 -15 -15 -15 -75z"/>
<path d="M1500 1385 c0 -60 2 -66 25 -77 19 -8 31 -8 50 0 15 7 25 8 25 2 0
-6 5 -10 10 -10 6 0 10 32 10 75 0 43 -4 75 -10 75 -9 0 -15 -51 -11 -86 1 -6
-8 -19 -20 -29 -33 -31 -53 -9 -57 59 -4 78 -22 71 -22 -9z"/>
<path d="M1676 1435 c-26 -27 -18 -43 33 -70 31 -15 32 -18 18 -33 -13 -13
-21 -13 -42 -4 -20 9 -25 9 -25 -2 0 -28 59 -35 84 -10 25 24 19 43 -19 65
-45 27 -47 53 -5 47 19 -3 29 -1 27 6 -6 18 -53 18 -71 1z"/>
<path d="M510 965 c0 -43 -1 -44 -20 -33 -17 11 -25 10 -48 -2 -22 -13 -28
-24 -30 -61 -2 -35 2 -49 18 -64 18 -17 25 -17 53 -7 21 8 33 9 35 2 2 -5 8
-10 13 -10 5 0 9 50 9 110 0 91 -3 110 -15 110 -11 0 -15 -12 -15 -45z m-12
-57 c17 -17 15 -73 -3 -88 -22 -18 -48 -8 -59 22 -19 53 27 101 62 66z"/>
<path d="M590 985 c0 -9 5 -15 11 -13 6 2 11 8 11 13 0 5 -5 11 -11 13 -6 2
-11 -4 -11 -13z"/>
<path d="M1250 964 c0 -9 -8 -23 -17 -30 -17 -12 -17 -13 -1 -14 14 0 18 -11
20 -56 3 -62 20 -84 54 -69 18 8 18 8 -1 13 -28 6 -35 20 -35 70 0 38 2 42 25
42 14 0 25 5 25 10 0 6 -11 10 -25 10 -18 0 -25 5 -25 20 0 11 -4 20 -10 20
-5 0 -10 -7 -10 -16z"/>
<path d="M590 865 c0 -43 4 -75 10 -75 6 0 10 32 10 75 0 43 -4 75 -10 75 -6
0 -10 -32 -10 -75z"/>
<path d="M673 933 c-26 -10 -12 -20 29 -19 33 1 43 -3 46 -16 3 -14 -3 -18
-23 -18 -39 0 -65 -18 -65 -43 0 -29 18 -47 45 -47 12 0 26 5 33 12 9 9 12 9
12 0 0 -7 5 -12 10 -12 6 0 10 28 10 65 0 53 -3 66 -19 75 -20 10 -57 12 -78
3z m77 -86 c0 -18 -21 -37 -41 -37 -22 0 -33 16 -25 35 7 19 66 20 66 2z"/>
<path d="M820 865 c0 -60 3 -75 15 -75 11 0 15 13 15 54 0 60 19 88 48 69 12
-7 18 -27 20 -67 4 -72 22 -73 22 -1 0 45 4 56 21 65 37 20 49 6 49 -60 0 -47
3 -60 15 -60 24 0 20 101 -4 131 -18 22 -22 23 -51 12 -24 -9 -38 -9 -53 -2
-14 8 -27 8 -45 -1 -19 -8 -28 -8 -30 -1 -2 6 -8 11 -13 11 -5 0 -9 -34 -9
-75z"/>
<path d="M1095 915 c-27 -26 -31 -49 -16 -88 11 -28 53 -42 95 -31 39 10 32
26 -9 18 -37 -7 -65 7 -65 32 0 10 14 14 50 14 46 0 50 2 50 24 0 27 -33 56
-63 56 -10 0 -29 -11 -42 -25z m73 -7 c21 -21 13 -28 -28 -28 -22 0 -40 4 -40
8 0 14 23 32 40 32 9 0 21 -5 28 -12z"/>
<path d="M1365 915 c-27 -26 -31 -49 -16 -88 11 -28 53 -42 95 -31 39 10 32
26 -9 18 -37 -7 -65 7 -65 32 0 10 14 14 50 14 46 0 50 2 50 24 0 27 -33 56
-63 56 -10 0 -29 -11 -42 -25z m73 -7 c21 -21 13 -28 -28 -28 -22 0 -40 4 -40
8 0 14 23 32 40 32 9 0 21 -5 28 -12z"/>
<path d="M1510 865 c0 -60 3 -75 15 -75 12 0 15 13 15 55 0 46 3 56 23 66 12
7 24 12 27 12 14 -3 11 7 -4 13 -9 3 -24 0 -33 -7 -13 -11 -17 -11 -20 -1 -12
34 -23 4 -23 -63z"/>
</g>
</svg>
